HIERARCHY
ROOT Hips
{
	OFFSET 0.00000 0.00000 0.00000
	CHANNELS 6 Xposition Yposition Zposition Zrotation Yrotation Xrotation 
	JOINT LHipJoint
	{
		OFFSET 0 0 0
		CHANNELS 3 Zrotation Yrotation Xrotation
		JOINT LeftUpLeg
		{
			OFFSET 1.36337 -1.57426 1.11036
			CHANNELS 3 Zrotation Yrotation Xrotation
			JOINT LeftLeg
			{
				OFFSET 2.38468 -6.55187 0.00000
				CHANNELS 3 Zrotation Yrotation Xrotation
				JOINT LeftFoot
				{
					OFFSET 2.37166 -6.51609 0.00000
					CHANNELS 3 Zrotation Yrotation Xrotation
					JOINT LeftToeBase
					{
						OFFSET 0.29078 -0.79891 2.01393
						CHANNELS 3 Zrotation Yrotation Xrotation
						End Site
						{
							OFFSET 0.00000 -0.00000 1.07924
						}
					}
				}
			}
		}
	}
	JOINT RHipJoint
	{
		OFFSET 0 0 0
		CHANNELS 3 Zrotation Yrotation Xrotation
		JOINT RightUpLeg
		{
			OFFSET -1.36349 -1.57426 1.11036
			CHANNELS 3 Zrotation Yrotation Xrotation
			JOINT RightLeg
			{
				OFFSET -2.29562 -6.30717 0.00000
				CHANNELS 3 Zrotation Yrotation Xrotation
				JOINT RightFoot
				{
					OFFSET -2.40985 -6.62100 0.00000
					CHANNELS 3 Zrotation Yrotation Xrotation
					JOINT RightToeBase
					{
						OFFSET -0.23197 -0.63733 1.92232
						CHANNELS 3 Zrotation Yrotation Xrotation
						End Site
						{
							OFFSET -0.00000 -0.00000 1.01562
						}
					}
				}
			}
		}
	}
	JOINT LowerBack
	{
		OFFSET 0 0 0
		CHANNELS 3 Zrotation Yrotation Xrotation
		JOINT Spine
		{
			OFFSET -0.08565 2.03602 -0.24562
			CHANNELS 3 Zrotation Yrotation Xrotation
			JOINT Spine1
			{
				OFFSET -0.00036 2.05693 0.00216
				CHANNELS 3 Zrotation Yrotation Xrotation
				JOINT Neck
				{
					OFFSET 0 0 0
					CHANNELS 3 Zrotation Yrotation Xrotation
					JOINT Neck1
					{
						OFFSET -0.03664 1.69515 0.31789
						CHANNELS 3 Zrotation Yrotation Xrotation
						JOINT Head
						{
							OFFSET 0.00932 1.70181 -0.46013
							CHANNELS 3 Zrotation Yrotation Xrotation
							End Site
							{
								OFFSET 0.01243 1.77620 -0.19377
							}
						}
					}
				}
				JOINT LeftShoulder
				{
					OFFSET 0 0 0
					CHANNELS 3 Zrotation Yrotation Xrotation
					JOINT LeftArm
					{
						OFFSET 3.74344 0.81315 -0.36647
						CHANNELS 3 Zrotation Yrotation Xrotation
						JOINT LeftForeArm
						{
							OFFSET 4.97185 -0.00000 -0.00000
							CHANNELS 3 Zrotation Yrotation Xrotation
							JOINT LeftHand
							{
								OFFSET 3.35811 -0.00000 0.00000
								CHANNELS 3 Zrotation Yrotation Xrotation
								JOINT LeftFingerBase
								{
									OFFSET 0 0 0
									CHANNELS 3 Zrotation Yrotation Xrotation
									JOINT LeftHandIndex1
									{
										OFFSET 0.62278 -0.00000 0.00000
										CHANNELS 3 Zrotation Yrotation Xrotation
										End Site
										{
											OFFSET 0.50210 -0.00000 0.00000
										}
									}
								}
								JOINT LThumb
								{
									OFFSET 0 0 0
									CHANNELS 3 Zrotation Yrotation Xrotation
									End Site
									{
										OFFSET 0.50976 -0.00000 0.50976
									}
								}
							}
						}
					}
				}
				JOINT RightShoulder
				{
					OFFSET 0 0 0
					CHANNELS 3 Zrotation Yrotation Xrotation
					JOINT RightArm
					{
						OFFSET -3.75385 0.50666 -0.06525
						CHANNELS 3 Zrotation Yrotation Xrotation
						JOINT RightForeArm
						{
							OFFSET -4.96493 -0.00000 -0.00000
							CHANNELS 3 Zrotation Yrotation Xrotation
							JOINT RightHand
							{
								OFFSET -3.34929 -0.00000 0.00000
								CHANNELS 3 Zrotation Yrotation Xrotation
								JOINT RightFingerBase
								{
									OFFSET 0 0 0
									CHANNELS 3 Zrotation Yrotation Xrotation
									JOINT RightHandIndex1
									{
										OFFSET -0.63804 -0.00000 0.00000
										CHANNELS 3 Zrotation Yrotation Xrotation
										End Site
										{
											OFFSET -0.51441 -0.00000 0.00000
										}
									}
								}
								JOINT RThumb
								{
									OFFSET 0 0 0
									CHANNELS 3 Zrotation Yrotation Xrotation
									End Site
									{
										OFFSET -0.52226 -0.00000 0.52226
									}
								}
							}
						}
					}
				}
			}
		}
	}
}
MOTION
Frames: 9
Frame Time: .0083333
30.6899 15.4170 -11.8921 167.9700 -78.5150 -160.9560 0.0000 0.0000 0.0000 -17.0134 5.7812 -54.6623 6.2266 14.6444 45.8843 -0.2603 9.3586 -6.1668 0.8012 5.7129 15.9536 0.0000 0.0000 0.0000 18.3203 -14.1489 -31.2092 -9.5690 -17.1602 58.0378 -2.8902 4.6113 -31.1506 -0.0879 -1.9117 5.2618 -0.8218 3.1262 34.9199 -2.9051 2.1231 8.7732 -3.3481 0.5567 -7.8897 1.5612 9.5489 -27.7193 -15.2987 17.0665 21.8158 -2.7735 5.3997 13.7052 -0.0000 -0.0000 0.0000 -76.7553 -10.0887 34.1578 35.7908 -45.3686 -15.3734 -0.0000 0.0000 -27.3588 28.0874 -13.8513 -7.2808 -7.1250 0.0000 -0.0000 0.4489 14.3649 -0.3235 -0.0000 -0.0000 0.0000 80.6560 9.2478 30.0432 -26.2161 37.4213 -9.0186 0.0000 -0.0000 -23.3902 -16.4817 -21.3575 6.1499 7.1250 -0.0000 -0.0000 12.4199 -51.7444 -2.0896
30.5721 15.4176 -11.8559 168.4650 -78.8467 -161.3760 0.0000 0.0000 0.0000 -17.0612 5.6802 -54.7480 6.4206 14.8239 46.6473 -0.2186 8.8639 -6.6889 0.8480 5.8734 16.4175 0.0000 0.0000 0.0000 18.1008 -14.2259 -30.8328 -9.6117 -17.1856 58.1825 -2.8729 4.4782 -31.0748 -0.0467 -1.3945 3.8349 -0.9912 3.2228 35.0307 -2.8884 2.1934 8.6639 -3.2728 0.5927 -8.0518 -0.2775 7.9045 -28.4851 -13.2345 14.9870 22.4767 -2.1401 4.5463 13.5115 0.0000 -0.0000 0.0000 -76.7485 -10.1377 34.1219 35.7537 -45.3429 -15.3470 -0.0000 0.0000 -27.0023 27.6276 -13.2583 -6.8449 -7.1250 0.0000 -0.0000 0.1883 15.0869 -0.1328 0.0000 -0.0000 0.0000 80.5682 9.2193 30.3489 -25.9681 37.1772 -8.8683 0.0000 -0.0000 -23.6017 -16.3773 -20.5258 5.8833 7.1250 -0.0000 -0.0000 12.1992 -50.8954 -1.7949
30.4621 15.4134 -11.8210 170.0070 -79.2623 -162.6670 0.0000 0.0000 0.0000 -16.8280 5.4589 -55.0438 6.6261 15.0088 47.4455 -0.1779 8.3881 -7.1699 0.9015 6.0509 16.9323 0.0000 0.0000 0.0000 18.1969 -14.0885 -30.6750 -9.6442 -17.2048 58.2923 -2.8349 3.9816 -30.9480 -0.0148 -0.7854 2.1585 -0.9692 3.3096 34.9465 -2.8717 2.3257 8.6216 -3.3152 0.6590 -8.0611 -1.8458 6.1459 -29.2100 -11.3495 12.6980 22.9645 -1.6405 3.6250 13.3686 -0.0000 -0.0000 0.0000 -76.5927 -10.4710 34.1316 35.5275 -45.1852 -15.1864 -0.0000 0.0000 -26.7438 27.0739 -12.8653 -6.4930 -7.1250 0.0000 -0.0000 -0.1588 15.5935 0.1103 -0.0000 -0.0000 0.0000 80.6103 9.2601 30.5209 -25.8346 37.0449 -8.7878 0.0000 -0.0000 -23.6460 -16.4289 -20.2009 5.8138 7.1250 -0.0000 -0.0000 12.0280 -50.5783 -1.6744
30.3496 15.4090 -11.7864 171.1190 -79.6119 -163.5610 0.0000 0.0000 0.0000 -16.7264 5.3067 -55.3322 6.8385 15.1944 48.2610 -0.1345 7.8839 -7.6545 0.9453 6.1924 17.3436 0.0000 0.0000 0.0000 18.0991 -13.9037 -30.2684 -9.6565 -17.2121 58.3340 -2.8231 4.3622 -30.8119 -0.0316 -1.1476 3.1551 -0.9740 3.4796 34.7882 -2.9550 2.5262 8.7473 -3.4666 0.7541 -7.8531 -3.1844 4.3375 -29.8798 -9.5835 10.2705 23.1743 -1.2319 2.6792 13.2160 -0.0000 -0.0000 0.0000 -76.2652 -11.0854 34.3801 35.3827 -45.0834 -15.0837 -0.0000 0.0000 -26.7005 27.1663 -13.4182 -6.7913 -7.1250 0.0000 -0.0000 -0.1404 14.9691 0.0994 -0.0000 -0.0000 0.0000 80.8165 9.4136 30.4015 -25.9341 37.1436 -8.8478 0.0000 -0.0000 -23.5497 -16.5467 -20.5292 5.9481 7.1250 -0.0000 -0.0000 12.0364 -50.9266 -1.7796
30.2354 15.4139 -11.7546 171.4180 -79.8876 -163.6770 0.0000 0.0000 0.0000 -16.8554 5.2835 -55.5700 7.0466 15.3710 49.0505 -0.0857 7.3091 -8.1506 0.9857 6.3194 17.7139 0.0000 0.0000 0.0000 17.8785 -13.8929 -29.9733 -9.6554 -17.2115 58.3303 -2.7894 4.0027 -30.6831 -0.0069 -0.5352 1.4707 -1.4670 3.6047 34.5918 -2.8474 2.5342 8.8120 -3.0871 0.7590 -7.7292 -5.0895 2.4419 -30.0246 -7.6251 7.8600 23.0861 -0.6443 1.7533 12.9053 0.0000 -0.0000 0.0000 -76.4456 -11.1544 34.1046 35.6903 -45.2988 -15.3020 -0.0000 0.0000 -26.4315 28.3680 -13.3673 -7.1159 -7.1250 0.0000 -0.0000 0.6840 14.8677 -0.4856 0.0000 -0.0000 0.0000 80.5282 9.6802 31.0814 -25.8487 37.0589 -8.7963 0.0000 -0.0000 -23.6854 -16.7058 -20.3500 5.9584 7.1250 -0.0000 -0.0000 11.8152 -50.7727 -1.7010
30.1231 15.4122 -11.7241 172.4210 -80.1935 -164.4750 0.0000 0.0000 0.0000 -16.8226 5.2488 -55.8180 7.2495 15.5384 49.8117 -0.0386 6.7527 -8.6134 1.0455 6.5025 18.2497 0.0000 0.0000 0.0000 17.7973 -13.8524 -29.6498 -9.6402 -17.2025 58.2789 -2.7671 3.7378 -30.6050 -0.0002 0.0918 -0.2523 -1.7846 3.7637 34.4637 -2.7848 2.6404 8.8340 -2.8874 0.8104 -7.6662 -6.7157 0.5314 -29.8561 -5.7530 5.3148 22.8444 -0.1487 0.7964 12.6011 0.0000 -0.0000 0.0000 -76.4298 -11.2243 34.0679 36.0517 -45.5486 -15.5593 -0.0000 0.0000 -26.3988 29.7242 -13.6278 -7.6617 -7.1250 0.0000 -0.0000 1.5808 14.3856 -1.1389 0.0000 -0.0000 0.0000 80.3642 9.9090 31.6392 -25.6086 36.8196 -8.6520 0.0000 -0.0000 -23.9473 -16.7283 -19.7614 5.8024 7.1250 -0.0000 -0.0000 11.5803 -50.1849 -1.4976
30.0209 15.4046 -11.6934 174.4360 -80.5569 -166.1760 0.0000 0.0000 0.0000 -16.5733 5.1001 -56.1888 7.4383 15.6902 50.5133 -0.0020 6.2842 -8.9119 1.0628 6.5543 18.4015 0.0000 0.0000 0.0000 17.9222 -13.6925 -29.3870 -9.6176 -17.1892 58.2026 -2.7507 3.7187 -30.5137 -0.0039 0.4032 -1.1079 -1.8241 3.9002 34.5473 -2.7902 2.7980 8.7778 -2.9344 0.8865 -7.7537 -8.5288 -1.4263 -29.3183 -3.4139 2.6043 22.1389 0.5370 -0.1567 12.1431 0.0000 -0.0000 0.0000 -76.2391 -11.4185 34.1447 36.2462 -45.6818 -15.6984 -0.0000 0.0000 -26.5952 30.1245 -14.1623 -8.0803 -7.1250 0.0000 -0.0000 1.7952 13.7213 -1.3188 0.0000 -0.0000 0.0000 80.5527 10.1187 31.7551 -25.8533 37.0635 -8.7991 0.0000 -0.0000 -23.8741 -16.6118 -19.7588 5.7592 7.1250 -0.0000 -0.0000 11.6914 -50.1639 -1.5062
29.9203 15.4031 -11.6612 176.0270 -80.8897 -167.5490 0.0000 0.0000 0.0000 -16.4185 4.9631 -56.3995 7.6099 15.8247 51.1449 0.0360 5.8105 -9.2467 1.0699 6.5756 18.4639 0.0000 0.0000 0.0000 17.9504 -13.6323 -29.0704 -9.5809 -17.1674 58.0784 -2.6897 3.3278 -30.2365 -0.0153 0.7998 -2.1982 -2.0181 3.9813 34.7595 -2.7506 2.8454 8.5466 -2.8227 0.9148 -8.0916 -10.1113 -3.1596 -28.8429 -1.3031 0.2251 22.0952 1.1619 -1.0276 12.0834 0.0000 -0.0000 0.0000 -76.2584 -11.0528 33.9851 36.4990 -45.8533 -15.8795 -0.0000 0.0000 -26.5334 30.1366 -14.2206 -8.1163 -7.1250 0.0000 -0.0000 1.7971 13.6534 -1.3228 0.0000 -0.0000 0.0000 80.4764 9.7213 32.3327 -26.3301 37.5328 -9.0880 0.0000 -0.0000 -24.0207 -16.7125 -19.7455 5.7921 7.1250 -0.0000 -0.0000 11.5898 -50.1664 -1.4935
29.8139 15.4059 -11.6270 176.7910 -81.2434 -168.2060 0.0000 0.0000 0.0000 -16.4275 4.8051 -56.3788 7.7603 15.9401 51.6946 0.0822 5.3171 -9.7447 1.1227 6.7304 18.9191 0.0000 0.0000 0.0000 17.7934 -13.7866 -28.6242 -9.5282 -17.1359 57.8995 -2.6058 2.9252 -29.8266 -0.0302 1.1211 -3.0820 -2.2347 4.0287 34.7890 -2.7450 2.8333 8.5129 -2.7003 0.9117 -8.1473 -11.3689 -4.7523 -28.4145 0.4314 -2.0003 21.9499 1.6185 -1.8595 12.0805 0.0000 -0.0000 0.0000 -76.2848 -10.9451 33.7656 36.5078 -45.8592 -15.8858 -0.0000 0.0000 -26.3741 30.1277 -14.5004 -8.2675 -7.1250 0.0000 -0.0000 1.7608 13.3379 -1.3077 0.0000 -0.0000 0.0000 80.5349 10.1564 32.8760 -26.2723 37.4763 -9.0528 0.0000 -0.0000 -24.0920 -16.9208 -19.5286 5.8067 7.1250 -0.0000 -0.0000 11.3134 -49.9809 -1.4050
